Coordinates
version=1
nRows=19
nColumns=24
inDegrees=yes

Units are S.I. units (second, meters, Newtons, ...)
Angles are in degrees.

endheader
time	pelvis_tilt	pelvis_list	pelvis_rotation	pelvis_tx	pelvis_ty	pelvis_tz	hip_flexion_r	hip_adduction_r	hip_rotation_r	knee_angle_r	ankle_angle_r	subtalar_angle_r	mtp_angle_r	hip_flexion_l	hip_adduction_l	hip_rotation_l	knee_angle_l	ankle_angle_l	subtalar_angle_l	mtp_angle_l	lumbar_extension	lumbar_bending	lumbar_rotation
      3.16000000	    -10.45052299	      4.32697638	    355.52597313	     -0.55761161	      1.36131125	     -1.01662599	      2.19396094	     -1.30004196	      8.93852833	    -16.05587804	     14.31821896	     -1.48542665	      8.44513936	     29.53983588	      4.14056726	     -4.88350096	      2.58598730	     -7.01857339	     -0.17896149	     32.78705386	     -8.13877835	      0.75104913	     14.12505829
      3.16500000	    -10.41301580	      4.46710929	    355.49518523	     -0.55184269	      1.36084209	     -1.01691794	      1.85967651	     -1.51395694	      8.86875635	    -16.15940487	     14.37588622	     -1.25611532	      8.58869126	     29.56460903	      4.32265038	     -4.76946724	      1.90124092	     -7.14259784	     -1.02644490	     32.49442535	     -8.15809363	      0.50003583	     14.08333058
      3.17000000	    -10.43922801	      4.60083002	    355.47084342	     -0.54608079	      1.36035577	     -1.01718758	      1.62542974	     -1.70433002	      8.82868836	    -16.32092988	     14.35526960	     -1.13283151	      8.78302121	     29.65185499	      4.49142309	     -4.61532405	      1.23189613	     -7.34513322	     -1.83089247	     32.22409698	     -8.10872263	      0.25374930	     14.02080767
      3.17500000	    -10.43593655	      4.74359786	    355.45361528	     -0.54030171	      1.35993831	     -1.01745840	      1.38205290	     -1.90563503	      8.76866234	    -16.52455424	     14.29655664	     -1.00715238	      9.02996668	     29.68324378	      4.67729072	     -4.46537386	      0.62008666	     -7.60882147	     -2.53946275	     32.01298382	     -8.08954208	     -0.00545340	     13.94717384
      3.18000000	    -10.47052777	      4.87836712	    355.45735445	     -0.53451690	      1.35953063	     -1.01774204	      1.20929168	     -2.09011352	      8.69733666	    -16.78664713	     14.18049891	     -0.91211269	      9.35472916	     29.74273100	      4.85988071	     -4.26844034	      0.04584991	     -7.91822911	     -3.20557221	     31.87054352	     -8.02592892	     -0.25894865	     13.85107384
      3.18500000	    -10.48808044	      5.02705612	    355.44282112	     -0.52874695	      1.35921699	     -1.01799194	      1.06231869	     -2.28610341	      8.62898388	    -17.12155001	     14.03159529	     -0.79727740	      9.69362341	     29.76131055	      5.04879369	     -4.15318126	     -0.46879427	     -8.30230079	     -3.75413938	     31.77678951	     -7.98850951	     -0.52398234	     13.73984060
      3.19000000	    -10.50372031	      5.17475783	    355.47405141	     -0.52295531	      1.35896450	     -1.01828769	      0.93696681	     -2.48035112	      8.50585319	    -17.50652427	     13.79864250	     -0.73268490	     10.16320057	     29.76205397	      5.25758001	     -3.96476063	     -0.94368902	     -8.71264105	     -4.26617002	     31.77732205	     -7.94588232	     -0.80166796	     13.62018444
      3.19500000	    -10.53403485	      5.32794583	    355.46925091	     -0.51721654	      1.35877574	     -1.01853723	      0.89317192	     -2.67103054	      8.42367051	    -17.99871988	     13.54658527	     -0.62536276	     10.62401167	     29.77169277	      5.44875534	     -3.87622872	     -1.39608928	     -9.14131913	     -4.67754734	     31.78971009	     -7.90608986	     -1.06641129	     13.46370140
      3.20000000	    -10.58634423	      5.45941365	    355.51596819	     -0.51146341	      1.35864561	     -1.01884489	      0.90349331	     -2.83499019	      8.28571475	    -18.55252748	     13.16409327	     -0.58803107	     11.26813558	     29.79562695	      5.63771300	     -3.69402127	     -1.83235205	     -9.60232088	     -5.07477238	     31.87158699	     -7.83269150	     -1.32535462	     13.32410674
      3.20500000	    -10.60939130	      5.60575463	    355.53827443	     -0.50576134	      1.35860686	     -1.01912067	      0.94620242	     -3.01316661	      8.16146852	    -19.21126297	     12.78637974	     -0.48806408	     11.89041296	     29.79088993	      5.82927112	     -3.60770747	     -2.27633512	    -10.02111653	     -5.41005986	     31.91768882	     -7.81062001	     -1.58761461	     13.14133261
      3.21000000	    -10.66931847	      5.72988219	    355.59461670	     -0.50004946	      1.35861811	     -1.01946465	      1.07468474	     -3.16378737	      8.00034661	    -19.95472063	     12.26936019	     -0.46466519	     12.69107255	     29.82414729	      6.00874275	     -3.44641828	     -2.72910907	    -10.44165338	     -5.74382388	     31.95675922	     -7.74059459	     -1.82364117	     12.99096150
      3.21500000	    -10.69884030	      5.86295660	    355.64080865	     -0.49436791	      1.35873572	     -1.01979871	      1.22879958	     -3.32710454	      7.82992170	    -20.79250084	     11.72067754	     -0.36836610	     13.50783608	     29.83427940	      6.19231357	     -3.34260826	     -3.21141629	    -10.81693527	     -6.05598856	     31.91528811	     -7.71763339	     -2.06509967	     12.80737189
      3.22000000	    -10.73761542	      5.97584693	    355.71066026	     -0.48870722	      1.35890386	     -1.02017068	      1.44493680	     -3.46599326	      7.63379707	    -21.72148461	     11.07106798	     -0.34250581	     14.49317262	     29.86707231	      6.36362488	     -3.20077042	     -3.73335252	    -11.14836604	     -6.38234926	     31.81845217	     -7.68727155	     -2.28538369	     12.62846676
      3.22500000	    -10.77859186	      6.08491823	    355.77521275	     -0.48306498	      1.35913177	     -1.02056595	      1.72733320	     -3.60372050	      7.42345948	    -22.75624558	     10.37205072	     -0.26143661	     15.51258419	     29.91438275	      6.52699274	     -3.07143771	     -4.29284527	    -11.42175860	     -6.71967249	     31.63954931	     -7.66119944	     -2.48705397	     12.44586649
      3.23000000	    -10.77817650	      6.19148747	    355.85217593	     -0.47742111	      1.35946214	     -1.02098324	      2.01018672	     -3.74543967	      7.18434929	    -23.86040951	      9.56397236	     -0.22755192	     16.69886446	     29.92147277	      6.69847463	     -2.92913980	     -4.87747938	    -11.65492974	     -7.05605396	     31.37869289	     -7.68141260	     -2.68711164	     12.25669760
      3.23500000	    -10.79151165	      6.28220460	    355.94031164	     -0.47180516	      1.35980843	     -1.02143953	      2.36495465	     -3.87206015	      6.92492886	    -25.05833437	      8.68638964	     -0.20798312	     17.95452579	     29.95939761	      6.85813535	     -2.77011253	     -5.50613080	    -11.81995478	     -7.36959210	     31.05344176	     -7.69066700	     -2.86416132	     12.07461810
      3.24000000	    -10.75043952	      6.37827640	    356.02754327	     -0.46618386	      1.36024863	     -1.02192417	      2.70592092	     -4.01723249	      6.64075739	    -26.31966144	      7.72401464	     -0.19061439	     19.32053897	     29.93314742	      7.03219738	     -2.61327531	     -6.13675088	    -11.94130034	     -7.66823276	     30.66159989	     -7.75724637	     -3.04298838	     11.90738626
      3.24500000	    -10.73008888	      6.46378558	    356.11334696	     -0.46058513	      1.36070433	     -1.02241149	      3.12217358	     -4.14857184	      6.36578835	    -27.65411789	      6.65897247	     -0.25825331	     20.78218283	     29.93263750	      7.19155128	     -2.47804318	     -6.78183121	    -12.02858982	     -7.87640550	     30.24122174	     -7.80115676	     -3.20184270	     11.74869136
      3.25000000	    -10.69887861	      6.54856748	    356.20721439	     -0.45498221	      1.36116954	     -1.02294945	      3.56917888	     -4.29191925	      6.06423859	    -29.05088378	      5.56388153	     -0.26928335	     22.24049109	     29.91464502	      7.36295372	     -2.31269632	     -7.42576044	    -12.04446286	     -8.11320125	     29.79069403	     -7.84885669	     -3.35189324	     11.58616043
